<?xml version="1.0" encoding="UTF-8" standalone="no"?>
<!-- Created with Inkscape (http://www.inkscape.org/) -->

<svg
   width="1200"
   height="630"
   viewBox="0 0 317.49999 166.6875"
   version="1.1"
   id="svg1"
   xml:space="preserve"
   inkscape:version="1.4.3 (0d15f75, 2025-12-25)"
   sodipodi:docname="og.svg"
   inkscape:export-filename="og.png"
   inkscape:export-xdpi="96"
   inkscape:export-ydpi="96"
   xmlns:inkscape="http://www.inkscape.org/namespaces/inkscape"
   xmlns:sodipodi="http://sodipodi.sourceforge.net/DTD/sodipodi-0.dtd"
   xmlns="http://www.w3.org/2000/svg"
   xmlns:svg="http://www.w3.org/2000/svg"><sodipodi:namedview
     id="namedview1"
     pagecolor="#f5f5f5"
     bordercolor="#000000"
     borderopacity="0.25"
     inkscape:showpageshadow="2"
     inkscape:pageopacity="0.0"
     inkscape:pagecheckerboard="0"
     inkscape:deskcolor="#d1d1d1"
     inkscape:document-units="mm"
     inkscape:zoom="0.71891835"
     inkscape:cx="734.43667"
     inkscape:cy="110.58279"
     inkscape:window-width="1920"
     inkscape:window-height="1009"
     inkscape:window-x="1912"
     inkscape:window-y="-8"
     inkscape:window-maximized="1"
     inkscape:current-layer="layer1"
     inkscape:export-bgcolor="#ffffffff" /><defs
     id="defs1"><style
       id="style1">
      .cls-1 {
        fill: #231815;
      }

      .cls-1, .cls-2 {
        stroke-width: 0px;
      }

      .cls-2 {
        fill: #c7000b;
        fill-rule: evenodd;
      }
    </style><style
       id="style1-8">
      .cls-1 {
        fill: #231815;
      }

      .cls-1, .cls-2 {
        stroke-width: 0px;
      }

      .cls-2 {
        fill: #c7000b;
        fill-rule: evenodd;
      }
    </style></defs><g
     inkscape:label="Layer 1"
     inkscape:groupmode="layer"
     id="layer1"><g
       id="g1"
       transform="matrix(0.1201192,0,0,0.1201192,64.132558,33.915251)"><path
         class="cls-2"
         d="M 300.9,102.4 C 280.6,61.2 254,3.6 179.6,0.1 142.9,-1.6 110,14.6 87.4,40.7 77,52.7 69.7,65.3 63.8,84.7 c 10,-4.2 21.8,-6.5 30.4,-7.2 33.3,-2.6 69.2,11.2 91,43.3 26.4,38.8 66.4,100.4 87.8,132.3 17.5,26.2 46,31.3 62,24.2 19.9,-8.8 32.1,-29.5 18.9,-58.4 -14.6,-32.1 -44.4,-98.7 -53.2,-116.6 v 0 z m 152,75.7 C 448.4,134.3 420,99 383.6,83.7 c -29.9,-12.5 -62.8,-10.5 -76,-9.5 0,0 70.1,153.8 81.4,178.7 9.8,21.6 28.5,18.6 35.6,11.7 16.5,-15.9 32.1,-49.7 28.4,-86.5 v 0 z M 132.2,95.5 C 96.9,87.2 51.8,97.6 23.8,131.6 -3.8,165.1 -2.1,192.4 3,214.5 c 6.5,28.5 20.9,43.4 36.4,53.7 15.3,10.2 34.7,14.7 48.3,9.5 6.1,-2.3 12.4,-6.9 18.2,-20.3 8.8,-20.3 37,-85.2 52.3,-120.2 3.3,-7.6 4.8,-15.1 2.3,-22 C 157,105.6 150,99.6 132.3,95.4 v 0 z"
         id="path1" /><g
         id="g37"
         style="fill:#000000"><g
           id="g25"
           style="fill:#000000"><path
             class="cls-1"
             d="M 563.7,193.4 H 547 l 0.9,-9.1 h 43.5 l -0.9,9.1 h -15.9 v 45.2 h -10.9 z"
             id="path2"
             style="fill:#000000" /><path
             class="cls-1"
             d="m 632.2,201.1 c 2.3,2.6 3.4,6.3 3.4,11.2 v 26.2 h -10.7 v -25.4 c 0,-2.6 -0.5,-4.5 -1.5,-5.7 -1,-1.2 -2.5,-1.8 -4.5,-1.8 -2,0 -3.5,0.4 -5.1,1.2 -1.5,0.8 -3,1.9 -4.5,3.4 v 28.2 h -10.8 v -54.7 l 10.7,-0.8 v 20.9 c 1.8,-2 3.7,-3.6 5.9,-4.9 2.2,-1.3 4.7,-1.9 7.5,-1.9 2.8,0 7.1,1.3 9.4,3.9 v 0 z"
             id="path3"
             style="fill:#000000" /><path
             class="cls-1"
             d="m 680.7,220.1 h -26.1 c 0.3,3.9 1.5,6.7 3.4,8.5 1.9,1.8 4.6,2.6 8,2.6 3.4,0 3.8,-0.2 5.9,-0.7 2.1,-0.5 4,-1.1 5.8,-1.8 l 2.3,7.3 c -4.7,2.2 -10,3.4 -15.8,3.4 -5.8,0 -11.8,-1.8 -15.3,-5.3 -3.5,-3.5 -5.2,-8.6 -5.2,-15.1 0,-6.5 0.8,-8.4 2.4,-11.6 1.6,-3.3 3.9,-5.8 6.8,-7.5 2.9,-1.7 6.3,-2.6 10.1,-2.6 3.8,0 7.3,0.9 9.9,2.8 2.7,1.8 4.6,4.3 5.9,7.4 1.3,3.1 1.9,6.5 1.9,10.3 v 2.4 0 z m -10.4,-6.6 c -0.2,-2.9 -0.9,-5.1 -2.2,-6.5 -1.3,-1.5 -3.1,-2.2 -5.3,-2.2 -2.2,0 -3.9,0.7 -5.3,2.2 -1.4,1.5 -2.3,3.6 -2.8,6.6 h 15.5 z"
             id="path4"
             style="fill:#000000" /><path
             class="cls-1"
             d="m 747,224.8 h -20.8 l -4.9,13.8 h -11 l 21,-54.3 H 742 l 21.5,54.3 h -11.7 l -5,-13.8 v 0 z m -17.8,-8.4 h 14.7 L 738.7,202 c -0.8,-2 -1.5,-4.3 -2.2,-6.9 -0.6,2.2 -1.3,4.5 -2.1,6.9 z"
             id="path5"
             style="fill:#000000" /><path
             class="cls-1"
             d="m 770.2,184.3 h 10.9 v 54.3 h -10.9 z"
             id="path6"
             style="fill:#000000" /><path
             class="cls-1"
             d="m 817.3,184.3 h 15.2 c 7.1,0 12.5,1.4 16.3,4.3 3.8,2.9 5.7,7 5.7,12.4 0,5.4 -0.8,6.7 -2.5,9.4 -1.7,2.7 -3.9,4.7 -6.8,6.1 -2.9,1.4 -6.3,2.1 -10,2.1 -3.7,0 -4.5,-0.2 -6.9,-0.7 v 20.6 h -10.9 v -54.3 0 z m 23.6,23.8 c 1.8,-1.6 2.6,-3.9 2.6,-7 0,-3.1 -0.9,-5.4 -2.8,-6.7 -1.9,-1.4 -4.6,-2 -8.3,-2 h -4.2 V 210 c 1.9,0.3 3.5,0.5 4.8,0.5 3.5,0 6,-0.8 7.8,-2.4 v 0 z"
             id="path7"
             style="fill:#000000" /><path
             class="cls-1"
             d="m 864.8,194.3 c -0.9,-0.5 -1.6,-1.2 -2.2,-2.1 -0.5,-0.9 -0.8,-1.9 -0.8,-3.1 0,-1.8 0.6,-3.2 1.7,-4.3 1.1,-1.1 2.6,-1.7 4.4,-1.7 1.8,0 2.2,0.3 3.1,0.8 0.9,0.5 1.7,1.2 2.2,2.1 0.5,0.9 0.8,1.9 0.8,3.1 0,1.2 -0.3,2.1 -0.8,3 -0.5,0.9 -1.3,1.6 -2.2,2.1 -1,0.5 -2,0.8 -3.1,0.8 -1.1,0 -2.2,-0.3 -3.2,-0.8 v 0 z m -2.3,3.7 h 10.8 v 40.5 h -10.8 z"
             id="path8"
             style="fill:#000000" /><path
             class="cls-1"
             d="m 891.6,237 c -3,-1.6 -5.3,-3.9 -7,-6.9 -1.7,-3.1 -2.5,-6.8 -2.5,-11.2 0,-4.4 0.8,-8.3 2.5,-11.6 1.7,-3.3 4.1,-5.7 7.1,-7.4 3,-1.7 6.5,-2.6 10.5,-2.6 4,0 7.3,0.8 10.2,2.5 3,1.7 5.3,4.1 6.9,7.3 1.7,3.2 2.5,7 2.5,11.3 0,4.3 -0.9,8.2 -2.6,11.4 -1.7,3.1 -4.1,5.5 -7.1,7.1 -3,1.6 -6.5,2.4 -10.4,2.4 -3.9,0 -7.1,-0.8 -10.1,-2.3 z m 19.1,-18.2 c 0,-4.3 -0.7,-7.7 -2.2,-10 -1.5,-2.4 -3.7,-3.5 -6.6,-3.5 -2.9,0 -5.2,1.2 -6.7,3.6 -1.5,2.4 -2.2,5.6 -2.2,9.8 0,4.2 0.8,7.1 2.4,9.3 1.6,2.2 3.9,3.3 6.9,3.3 5.6,0 8.5,-4.1 8.5,-12.4 z"
             id="path9"
             style="fill:#000000" /><path
             class="cls-1"
             d="m 930.3,208.3 c 0,-3.8 0,-7.2 -0.3,-10.3 h 10.2 c 0.2,0.8 0.3,1.9 0.4,3.1 0.1,1.3 0.2,2.3 0.3,3.2 1.3,-1.4 2.5,-2.6 3.7,-3.6 1.2,-1 2.6,-1.8 4.2,-2.5 1.6,-0.7 3.6,-1 5.7,-1 2.1,0 4.9,0.6 6.8,1.7 1.9,1.1 3.4,2.9 4.4,5.2 1,2.3 1.5,5.1 1.5,8.4 v 26 h -10.7 v -25.2 c 0,-2.6 -0.5,-4.5 -1.5,-5.8 -1,-1.2 -2.5,-1.9 -4.4,-1.9 -1.9,0 -3.5,0.4 -5,1.4 -1.5,0.9 -3,2.1 -4.5,3.7 v 27.8 h -10.8 v -30.3 0 z"
             id="path10"
             style="fill:#000000" /><path
             class="cls-1"
             d="m 1012.3,220.1 h -26.1 c 0.3,3.9 1.5,6.7 3.4,8.5 1.9,1.8 4.6,2.6 8,2.6 3.4,0 3.8,-0.2 5.9,-0.7 2.1,-0.5 4,-1.1 5.8,-1.8 l 2.3,7.3 c -4.7,2.2 -10,3.4 -15.8,3.4 -5.8,0 -11.8,-1.8 -15.3,-5.3 -3.5,-3.5 -5.2,-8.6 -5.2,-15.1 0,-6.5 0.8,-8.4 2.4,-11.6 1.6,-3.3 3.9,-5.8 6.8,-7.5 2.9,-1.7 6.3,-2.6 10.1,-2.6 3.8,0 7.3,0.9 9.9,2.8 2.7,1.8 4.6,4.3 5.9,7.4 1.3,3.1 1.9,6.5 1.9,10.3 v 2.4 0 z m -10.4,-6.6 c -0.2,-2.9 -0.9,-5.1 -2.2,-6.5 -1.3,-1.5 -3.1,-2.2 -5.3,-2.2 -2.2,0 -3.9,0.7 -5.3,2.2 -1.4,1.5 -2.3,3.6 -2.8,6.6 h 15.5 z"
             id="path11"
             style="fill:#000000" /><path
             class="cls-1"
             d="m 1056.3,220.1 h -26.1 c 0.3,3.9 1.4,6.7 3.4,8.5 1.9,1.8 4.6,2.6 8,2.6 3.4,0 3.8,-0.2 5.9,-0.7 2.1,-0.5 3.9,-1.1 5.8,-1.8 l 2.3,7.3 c -4.8,2.2 -10,3.4 -15.8,3.4 -5.8,0 -11.8,-1.8 -15.3,-5.3 -3.5,-3.6 -5.2,-8.6 -5.2,-15.1 0,-6.5 0.8,-8.4 2.4,-11.6 1.6,-3.3 3.9,-5.8 6.8,-7.5 2.9,-1.7 6.3,-2.6 10.1,-2.6 3.8,0 7.3,0.9 9.9,2.8 2.7,1.8 4.6,4.3 5.9,7.4 1.3,3.1 1.9,6.5 1.9,10.3 v 2.4 0 z m -10.4,-6.6 c -0.2,-2.9 -0.9,-5.1 -2.2,-6.5 -1.3,-1.5 -3.1,-2.2 -5.3,-2.2 -2.2,0 -3.9,0.7 -5.3,2.2 -1.4,1.4 -2.3,3.6 -2.8,6.6 h 15.5 v 0 z"
             id="path12"
             style="fill:#000000" /><path
             class="cls-1"
             d="m 1064.9,208.1 c 0,-2.2 0,-5.6 -0.3,-10.1 h 10.2 c 0.2,1.1 0.3,2.4 0.4,4 0.1,1.6 0.2,2.9 0.3,3.8 1.1,-1.8 2.1,-3.3 3.2,-4.5 1,-1.2 2.2,-2.2 3.6,-3 1.4,-0.8 2.9,-1.1 4.7,-1.1 1.8,0 2.6,0.2 3.7,0.5 l -1.3,9.2 c -0.9,-0.2 -1.9,-0.4 -3,-0.4 -2.1,0 -4,0.5 -5.6,1.5 -1.6,1 -3.3,2.7 -5,5.1 v 25.4 H 1065 v -30.4 0 z"
             id="path13"
             style="fill:#000000" /><path
             class="cls-1"
             d="m 1124.5,194.3 c -0.9,-0.5 -1.6,-1.2 -2.2,-2.1 -0.5,-0.9 -0.8,-1.9 -0.8,-3.1 0,-1.8 0.6,-3.2 1.7,-4.3 1.1,-1.1 2.6,-1.7 4.4,-1.7 1.8,0 2.2,0.3 3.1,0.8 0.9,0.5 1.7,1.2 2.2,2.1 0.5,0.9 0.8,1.9 0.8,3.1 0,1.2 -0.3,2.1 -0.8,3 -0.5,0.9 -1.3,1.6 -2.2,2.1 -0.9,0.5 -2,0.8 -3.1,0.8 -1.1,0 -2.2,-0.3 -3.2,-0.8 v 0 z m -2.3,3.7 h 10.8 v 40.5 h -10.8 z"
             id="path14"
             style="fill:#000000" /><path
             class="cls-1"
             d="m 1144.5,208.3 c 0,-3.8 0,-7.2 -0.3,-10.3 h 10.2 c 0.2,0.8 0.3,1.9 0.4,3.1 0.1,1.3 0.2,2.3 0.3,3.2 1.3,-1.4 2.5,-2.6 3.7,-3.6 1.2,-1 2.6,-1.8 4.2,-2.5 1.6,-0.7 3.6,-1 5.7,-1 2.1,0 4.9,0.6 6.8,1.7 1.9,1.1 3.4,2.9 4.4,5.2 1,2.3 1.5,5.1 1.5,8.4 v 26 h -10.7 v -25.2 c 0,-2.6 -0.5,-4.5 -1.5,-5.8 -1,-1.3 -2.4,-1.9 -4.4,-1.9 -2,0 -3.5,0.4 -5,1.4 -1.5,0.9 -3.1,2.1 -4.6,3.7 v 27.8 h -10.8 v -30.3 0 z"
             id="path15"
             style="fill:#000000" /><path
             class="cls-1"
             d="m 1218.4,184.3 h 10.9 v 54.3 h -10.9 z"
             id="path16"
             style="fill:#000000" /><path
             class="cls-1"
             d="m 1241.7,208.3 c 0,-3.8 0,-7.2 -0.3,-10.3 h 10.2 c 0.2,0.8 0.3,1.9 0.4,3.1 0.1,1.3 0.2,2.3 0.3,3.2 1.3,-1.4 2.5,-2.6 3.7,-3.6 1.2,-1 2.6,-1.8 4.2,-2.5 1.6,-0.7 3.6,-1 5.7,-1 2.1,0 4.9,0.6 6.8,1.7 1.9,1.1 3.4,2.9 4.4,5.2 1,2.3 1.5,5.1 1.5,8.4 v 26 h -10.7 v -25.2 c 0,-2.6 -0.5,-4.5 -1.5,-5.8 -1,-1.3 -2.4,-1.9 -4.4,-1.9 -2,0 -3.5,0.4 -5,1.4 -1.5,0.9 -3.1,2.1 -4.6,3.7 v 27.8 h -10.8 v -30.3 0 z"
             id="path17"
             style="fill:#000000" /><path
             class="cls-1"
             d="m 1314.6,238.6 c -0.3,-1.5 -0.6,-3.2 -0.8,-5.1 -1.6,1.9 -3.4,3.3 -5.3,4.4 -1.9,1.1 -4.2,1.5 -6.8,1.5 -2.6,0 -5.4,-0.7 -7.7,-2 -2.3,-1.3 -4.1,-3.5 -5.5,-6.4 -1.4,-2.9 -2.1,-6.6 -2.1,-11.1 0,-4.5 0.8,-8.7 2.3,-12.1 1.6,-3.4 3.8,-6 6.8,-7.8 3,-1.8 6.6,-2.7 10.9,-2.7 4.3,0 4.7,0.4 7.3,1.1 v -14.5 l 10.7,-0.8 v 45.4 c 0,3.3 0.1,6.7 0.3,10 h -10.2 v 0 z m -4.6,-9 c 1.6,-0.9 2.9,-1.9 3.8,-3.1 v -20.3 c -2.2,-0.8 -4.4,-1.2 -6.6,-1.2 -2.2,0 -5.4,1.2 -7.2,3.7 -1.8,2.5 -2.6,6.1 -2.6,11 0,4.9 0.7,6.8 2.1,8.6 1.4,1.8 3.1,2.7 5.3,2.7 2.2,0 3.6,-0.4 5.2,-1.4 z"
             id="path18"
             style="fill:#000000" /><path
             class="cls-1"
             d="m 1338.7,235.4 c -2.2,-2.6 -3.4,-6.4 -3.4,-11.4 v -26.1 h 10.6 v 25.3 c 0,2.6 0.5,4.5 1.5,5.7 1,1.2 2.4,1.8 4.4,1.8 2,0 3.5,-0.5 5.1,-1.4 1.6,-0.9 3.1,-2.1 4.6,-3.6 v -27.9 h 10.7 v 30.4 c 0,3.4 0.1,6.8 0.3,10.2 h -10.1 c -0.2,-0.8 -0.3,-1.8 -0.5,-3.1 -0.2,-1.2 -0.3,-2.3 -0.3,-3.1 -1.2,1.4 -2.4,2.5 -3.6,3.5 -1.2,1 -2.6,1.8 -4.2,2.5 -1.6,0.7 -3.5,1 -5.6,1 -4.1,0 -7.2,-1.3 -9.5,-3.9 v 0 z"
             id="path19"
             style="fill:#000000" /><path
             class="cls-1"
             d="m 1385.7,238.5 c -2.3,-0.5 -4.2,-1.2 -5.6,-1.9 l 2.3,-7 c 1.3,0.6 3,1.2 5,1.6 2,0.4 3.8,0.7 5.7,0.7 1.9,0 4,-0.4 5.1,-1.2 1.1,-0.8 1.7,-1.9 1.7,-3.3 0,-1.4 -0.3,-1.7 -0.8,-2.3 -0.5,-0.6 -1.3,-1.2 -2.4,-1.7 -1.1,-0.5 -2.7,-1.2 -4.8,-2 -2.3,-0.9 -4.2,-1.8 -5.8,-2.7 -1.6,-0.9 -2.8,-2.2 -3.9,-3.8 -1,-1.6 -1.5,-3.5 -1.5,-5.8 0,-2.3 0.6,-4.5 1.7,-6.3 1.2,-1.8 2.8,-3.1 5,-4.1 2.2,-1 4.9,-1.4 8,-1.4 3.1,0 4.5,0.2 6.8,0.8 2.2,0.5 4.3,1.2 6.1,2.1 l -1.8,6.9 c -1.8,-0.8 -3.6,-1.4 -5.6,-1.8 -2,-0.4 -3.7,-0.7 -5.1,-0.7 -1.4,0 -2.9,0.3 -3.8,0.9 -0.9,0.6 -1.3,1.4 -1.3,2.5 0,1.1 0.2,1.4 0.7,1.9 0.5,0.5 1.2,1 2.2,1.5 1,0.5 2.6,1.1 4.8,2 2.5,1 4.5,1.9 6,2.9 1.5,0.9 2.8,2.2 3.8,3.8 1,1.6 1.6,3.7 1.6,6.3 0,2.6 -0.6,5 -1.8,7 -1.2,2 -3.1,3.5 -5.6,4.6 -2.5,1.1 -5.6,1.6 -9.2,1.6 -3.6,0 -5.2,-0.3 -7.5,-0.8 v 0 z"
             id="path20"
             style="fill:#000000" /><path
             class="cls-1"
             d="m 1423.7,236 c -2.2,-2.2 -3.4,-6 -3.4,-11.3 v -18.9 h -5.9 l 1.2,-6.9 4.9,-0.9 0.5,-10 9.9,-1 v 11 h 12.1 l -1.2,7.8 h -10.9 v 17.7 c 0,1.9 0.2,3.5 0.6,4.6 0.4,1.1 1.1,1.9 1.9,2.4 0.8,0.5 2,0.7 3.3,0.7 1.3,0 3.8,-0.4 5.9,-1.2 l 1.4,7 c -1.4,0.6 -3,1.1 -4.8,1.6 -1.9,0.4 -3.8,0.6 -5.9,0.6 -4.2,0 -7.4,-1.1 -9.7,-3.4 v 0 z"
             id="path21"
             style="fill:#000000" /><path
             class="cls-1"
             d="m 1451.3,208.1 c 0,-2.2 0,-5.6 -0.3,-10.1 h 10.2 c 0.2,1.1 0.3,2.4 0.4,4 0.1,1.6 0.2,2.9 0.3,3.8 1.1,-1.8 2.1,-3.3 3.2,-4.5 1,-1.2 2.2,-2.2 3.6,-3 1.4,-0.8 2.9,-1.1 4.7,-1.1 1.8,0 2.6,0.2 3.7,0.5 l -1.3,9.2 c -0.9,-0.2 -1.9,-0.4 -3,-0.4 -2.1,0 -4,0.5 -5.6,1.5 -1.6,1 -3.3,2.7 -5,5.1 v 25.4 h -10.8 v -30.4 0 z"
             id="path22"
             style="fill:#000000" /><path
             class="cls-1"
             d="m 1486.2,194.3 c -0.9,-0.5 -1.6,-1.2 -2.2,-2.1 -0.5,-0.9 -0.8,-1.9 -0.8,-3.1 0,-1.8 0.6,-3.2 1.7,-4.3 1.1,-1.1 2.6,-1.7 4.4,-1.7 1.8,0 2.2,0.3 3.1,0.8 0.9,0.5 1.7,1.2 2.2,2.1 0.5,0.9 0.8,1.9 0.8,3.1 0,1.2 -0.3,2.1 -0.8,3 -0.5,0.9 -1.3,1.6 -2.2,2.1 -0.9,0.5 -2,0.8 -3.1,0.8 -1.1,0 -2.2,-0.3 -3.2,-0.8 v 0 z m -2.3,3.7 h 10.8 v 40.5 h -10.8 z"
             id="path23"
             style="fill:#000000" /><path
             class="cls-1"
             d="m 1540.5,220.1 h -26.1 c 0.3,3.9 1.4,6.7 3.4,8.5 1.9,1.8 4.6,2.6 8,2.6 3.4,0 3.8,-0.2 5.9,-0.7 2.1,-0.5 3.9,-1.1 5.8,-1.8 l 2.3,7.3 c -4.7,2.2 -10,3.4 -15.8,3.4 -5.8,0 -11.8,-1.8 -15.3,-5.3 -3.5,-3.6 -5.2,-8.6 -5.2,-15.1 0,-6.5 0.8,-8.4 2.4,-11.6 1.6,-3.3 3.9,-5.8 6.8,-7.5 2.9,-1.7 6.3,-2.6 10.1,-2.6 3.8,0 7.3,0.9 9.9,2.8 2.7,1.8 4.6,4.3 5.9,7.4 1.3,3.1 1.9,6.5 1.9,10.3 v 2.4 0 z m -10.4,-6.6 c -0.2,-2.9 -0.9,-5.1 -2.2,-6.5 -1.3,-1.5 -3.1,-2.2 -5.3,-2.2 -2.2,0 -3.9,0.7 -5.3,2.2 -1.4,1.4 -2.3,3.6 -2.8,6.6 h 15.5 v 0 z"
             id="path24"
             style="fill:#000000" /><path
             class="cls-1"
             d="m 1551.2,238.5 c -2.3,-0.5 -4.2,-1.2 -5.6,-1.9 l 2.3,-7 c 1.3,0.6 3,1.2 5,1.6 2,0.4 3.8,0.7 5.7,0.7 1.9,0 4,-0.4 5.1,-1.2 1.1,-0.8 1.7,-1.9 1.7,-3.3 0,-1.4 -0.3,-1.7 -0.8,-2.3 -0.5,-0.6 -1.3,-1.2 -2.4,-1.7 -1.1,-0.5 -2.7,-1.2 -4.8,-2 -2.3,-0.9 -4.2,-1.8 -5.8,-2.7 -1.6,-0.9 -2.8,-2.2 -3.9,-3.8 -1,-1.6 -1.5,-3.5 -1.5,-5.8 0,-2.3 0.6,-4.5 1.7,-6.3 1.2,-1.8 2.8,-3.1 5,-4.1 2.2,-1 4.9,-1.4 8,-1.4 3.1,0 4.5,0.2 6.8,0.8 2.2,0.5 4.3,1.2 6.1,2.1 l -1.8,6.9 c -1.8,-0.8 -3.6,-1.4 -5.6,-1.8 -2,-0.4 -3.7,-0.7 -5.1,-0.7 -1.4,0 -2.9,0.3 -3.8,0.9 -0.9,0.6 -1.3,1.4 -1.3,2.5 0,1.1 0.2,1.4 0.7,1.9 0.5,0.5 1.2,1 2.2,1.5 1,0.5 2.6,1.1 4.8,2 2.5,1 4.5,1.9 6,2.9 1.5,0.9 2.8,2.2 3.8,3.8 1,1.6 1.6,3.7 1.6,6.3 0,2.6 -0.6,5 -1.8,7 -1.2,2 -3.1,3.5 -5.6,4.6 -2.5,1.1 -5.6,1.6 -9.2,1.6 -3.6,0 -5.2,-0.3 -7.5,-0.8 v 0 z"
             id="path25"
             style="fill:#000000" /></g><g
           id="g36"
           style="fill:#000000"><path
             class="cls-1"
             d="m 546.9,42.7 h 18.8 v 37.5 h 41.9 V 42.7 h 18.8 v 93.6 H 607.6 V 95.2 h -41.9 v 41.1 h -18.8 z"
             id="path26"
             style="fill:#000000" /><path
             class="cls-1"
             d="m 666.3,133.6 c -5.9,-2.7 -10.4,-6.6 -13.6,-11.8 -3.2,-5.1 -4.8,-11.2 -4.8,-18.3 V 42.7 h 18.6 v 58.2 c 0,6.9 1.7,12.2 5.2,15.9 3.5,3.7 8.5,5.5 15.3,5.5 13.4,0 20,-7.2 20,-21.7 V 42.8 h 18.7 v 60.7 c 0,7.2 -1.6,13.4 -4.7,18.5 -3.1,5.2 -7.6,9.1 -13.4,11.8 -5.8,2.7 -12.7,4 -20.7,4 -8,0 -14.9,-1.4 -20.8,-4.1 v 0 z"
             id="path27"
             style="fill:#000000" /><path
             class="cls-1"
             d="m 798.4,112.5 h -35.8 l -8.5,23.7 H 735.2 L 771.5,42.5 H 790 l 37.1,93.7 H 807 Z M 767.8,98.1 h 25.4 l -9,-24.8 c -1.3,-3.4 -2.6,-7.4 -3.8,-12 -1,3.8 -2.3,7.8 -3.7,11.9 L 767.8,98 v 0 z"
             id="path28"
             style="fill:#000000" /><path
             class="cls-1"
             d="m 825.7,42.7 h 19.9 l 15,56.4 c 1.4,5 2.5,10.2 3.3,15.5 1.4,-6.3 2.8,-11.6 4,-15.8 l 16,-56.1 h 19.6 l 16.9,56.5 c 1.8,6.2 3.1,11.4 3.7,15.4 0.8,-4.1 1.9,-9.1 3.5,-14.7 l 14.5,-57.1 h 18.8 l -27.7,93.6 h -19.5 l -15.8,-53 c -1.1,-3.5 -2,-6.7 -2.7,-9.7 -0.7,-3 -1.4,-6.3 -2,-10 -0.7,3.6 -1.4,6.8 -2.1,9.7 -0.7,2.9 -1.5,6.1 -2.6,9.7 l -15.4,53.3 H 853.8 L 825.6,42.8 v 0 z"
             id="path29"
             style="fill:#000000" /><path
             class="cls-1"
             d="m 977.6,42.7 h 56.3 l -1.6,15.2 h -35.9 v 23.2 h 33.8 V 95.3 H 996.4 V 121 h 37.9 l -1.4,15.3 h -55.4 v -93.6 0 z"
             id="path30"
             style="fill:#000000" /><path
             class="cls-1"
             d="m 1053.2,42.7 h 18.8 v 93.6 h -18.8 z"
             id="path31"
             style="fill:#000000" /><path
             class="cls-1"
             d="m 1154,132.1 c -7.1,-3.6 -12.5,-9 -16.3,-16 -3.8,-7 -5.7,-15.5 -5.7,-25.4 0,-9.9 2,-19.1 5.9,-26.5 4,-7.4 9.5,-13.1 16.6,-17 7.1,-3.9 15.2,-5.8 24.4,-5.8 9.2,0 10,0.6 14.6,1.7 4.7,1.2 8.9,2.8 12.8,4.8 l -4.3,13.9 c -7.6,-3.9 -15,-5.9 -22.2,-5.9 -7.2,0 -11.3,1.4 -15.5,4.1 -4.3,2.8 -7.5,6.7 -9.7,11.8 -2.2,5.1 -3.3,11.1 -3.3,18 0,6.9 1,12.2 3.1,17.2 2.1,5 5.3,8.8 9.7,11.7 4.4,2.8 10,4.2 16.8,4.2 6.8,0 14.8,-1.8 22.7,-5.3 l 4,13.6 c -4,2 -8.2,3.5 -12.9,4.6 -4.6,1.1 -9.8,1.6 -15.6,1.6 -9.8,0 -18.2,-1.8 -25.3,-5.5 v 0 z"
             id="path32"
             style="fill:#000000" /><path
             class="cls-1"
             d="m 1223.3,42.7 h 18.8 v 77.8 h 37.5 l -1.4,15.8 h -54.9 z"
             id="path33"
             style="fill:#000000" /><path
             class="cls-1"
             d="m 1306.1,131.7 c -7,-3.9 -12.3,-9.4 -15.9,-16.5 -3.6,-7.1 -5.5,-15.3 -5.5,-24.7 0,-9.4 2,-18.5 5.9,-25.9 3.9,-7.4 9.6,-13.1 16.9,-17.1 7.3,-4 16,-6 26.1,-6 10.1,0 17.9,2 24.8,5.8 6.9,3.9 12.2,9.4 15.8,16.5 3.6,7.1 5.5,15.3 5.5,24.6 0,9.3 -2,18.7 -5.9,26.1 -3.9,7.4 -9.6,13.2 -17,17.2 -7.3,4 -15.9,6 -25.8,6 -9.9,0 -17.8,-2 -24.8,-5.9 v 0 z m 41.3,-13 c 4.2,-2.9 7.4,-6.9 9.5,-11.9 2.1,-5 3.2,-10.8 3.2,-17.3 0,-6.5 -0.9,-12.1 -2.8,-17.1 -1.9,-5 -4.8,-9 -8.9,-12 -4.1,-3 -9.3,-4.5 -15.7,-4.5 -6.4,0 -11.3,1.5 -15.6,4.5 -4.3,3 -7.5,7.1 -9.6,12.1 -2.1,5.1 -3.2,10.6 -3.2,16.7 0,6.1 1,12.2 3,17.3 2,5.1 5.1,9.1 9.2,12.1 4.1,2.9 9.2,4.4 15.3,4.4 6.1,0 11.3,-1.4 15.5,-4.3 v 0 z"
             id="path34"
             style="fill:#000000" /><path
             class="cls-1"
             d="m 1413.8,133.6 c -5.9,-2.7 -10.4,-6.6 -13.6,-11.8 -3.2,-5.1 -4.8,-11.2 -4.8,-18.3 V 42.7 h 18.6 v 58.2 c 0,6.9 1.7,12.2 5.2,15.9 3.4,3.6 8.6,5.5 15.3,5.5 13.4,0 20,-7.2 20,-21.7 V 42.8 h 18.7 v 60.7 c 0,7.2 -1.6,13.4 -4.7,18.5 -3.1,5.2 -7.6,9.1 -13.4,11.8 -5.8,2.7 -12.7,4 -20.7,4 -8,0 -14.9,-1.4 -20.8,-4.1 v 0 z"
             id="path35"
             style="fill:#000000" /><path
             class="cls-1"
             d="m 1494.9,42.7 h 32.4 c 10.1,0 18.7,1.7 25.9,5 7.2,3.3 12.7,8.2 16.5,14.8 3.8,6.5 5.7,14.5 5.7,23.9 0,9.4 -2,18.2 -6,25.8 -4,7.6 -9.7,13.5 -17.2,17.8 -7.5,4.3 -16.3,6.4 -26.4,6.4 H 1495 V 42.7 Z m 29.8,79 c 6.8,0 12.5,-1.5 17.2,-4.5 4.7,-3 8.2,-7.1 10.5,-12.3 2.3,-5.2 3.5,-11.2 3.5,-18 0,-9.8 -2.5,-17.2 -7.5,-22.2 -5,-5 -12.5,-7.5 -22.4,-7.5 h -12.3 v 64.5 z"
             id="path36"
             style="fill:#000000" /></g></g></g><g
       id="g38"
       transform="translate(2.8656795e-6,-3.0229351)"><text
         xml:space="preserve"
         style="font-size:21.2074px;text-align:center;writing-mode:lr-tb;direction:ltr;text-anchor:middle;fill:#ffffff;stroke-width:1.76728"
         x="158.80695"
         y="110.93798"
         id="text1"><tspan
           sodipodi:role="line"
           id="tspan1"
           style="font-style:normal;font-variant:normal;font-weight:bold;font-stretch:normal;font-family:'Huawei Sans';-inkscape-font-specification:'Huawei Sans';fill:#000000;stroke-width:1.76728"
           x="158.80695"
           y="110.93798">Aprenda Huawei Cloud BR</tspan></text><text
         xml:space="preserve"
         style="font-size:16.6363px;text-align:center;writing-mode:lr-tb;direction:ltr;text-anchor:middle;fill:#ffffff;stroke-width:1.38634"
         x="158.39665"
         y="132.13426"
         id="text2"><tspan
           sodipodi:role="line"
           id="tspan2"
           style="font-style:normal;font-variant:normal;font-weight:normal;font-stretch:normal;font-family:'Huawei Sans';-inkscape-font-specification:'Huawei Sans';fill:#000000;stroke-width:1.38634"
           x="158.39665"
           y="132.13426">aprendahwc.duck.tec.br</tspan></text></g><path
       style="fill:none;stroke:#999999;stroke-width:1.5875;stroke-linecap:round;stroke-linejoin:round;stroke-dasharray:none"
       d="M 36.38012,79.698396 H 281.11988"
       id="path37" /></g></svg>
